<svg width="478" height="100" viewBox="0 0 478 100" fill="none" xmlns="http://www.w3.org/2000/svg">
<path d="M132.071 66.199H133.305L138.858 71.4878C144.412 76.7767 147.585 79.2448 153.403 79.2448C160.719 79.2448 165.038 75.6308 165.038 69.2841C165.038 64.3479 162.746 61.6153 157.898 58.9708C153.138 56.4146 145.91 54.5635 140.974 51.4783C136.126 48.3931 133.569 43.8094 133.569 37.2865C133.569 27.6784 140.974 19.9214 153.403 19.9214C157.017 19.9214 160.366 20.5384 164.597 20.5384H169.181L173.324 33.7606H172.002L166.36 28.3836C160.631 22.9184 157.722 21.7725 153.315 21.7725C147.321 21.7725 143.266 25.2103 143.266 30.5873C143.266 34.6421 145.469 37.4628 149.789 39.6665C154.108 41.9583 161.424 43.9857 166.625 46.9828C171.826 50.0679 174.646 54.2109 174.646 61.5271C174.646 72.3693 166.184 81.0959 153.05 81.0959C148.466 81.0959 144.323 80.4789 139.828 80.4789H136.126L132.071 66.199Z" fill="black"/>
<path d="M222.598 80.6953V81.136H204.793V80.6953L207.349 76.7286V52.9287C207.349 47.5517 203.999 45.7006 199.856 45.7006C197.3 45.7006 195.361 46.4058 194.127 47.1991V76.7286L196.683 80.6953V81.136H178.965V80.6953L181.61 76.7286V26.9251L178.436 21.1955V20.7548L194.127 18.1104V45.965C197.036 41.9984 201.884 38.0317 208.319 38.0317C215.635 38.0317 219.954 42.968 219.954 50.2843V76.7286L222.598 80.6953Z" fill="black"/>
<path d="M264.733 70.2057C262.53 76.0234 256.8 82.0175 246.487 82.0175C234.146 82.0175 226.125 73.2908 226.125 60.9502C226.125 47.9043 234.851 38.0317 246.751 38.0317C256.712 38.0317 263.499 44.3784 264.381 53.8983H237.055C237.143 64.9168 241.903 72.9383 253.274 72.9383C258.122 72.9383 261.824 71.4397 264.028 69.5886L264.733 70.2057ZM237.055 52.1354H251.335C250.894 43.6732 248.867 39.971 244.459 39.971C240.052 39.971 237.319 43.4969 237.055 52.1354Z" fill="black"/>
<path d="M311.011 56.4546C311.011 70.382 300.345 81.136 288.357 81.136H282.715V95.5922L285.536 99.5589V99.9996H267.554V99.5589L270.198 95.5922V44.9073L267.642 39.354V38.9132H282.715V46.0532C285.272 41.9102 289.503 38.0317 295.937 38.0317C305.017 38.0317 311.011 46.0532 311.011 56.4546ZM299.199 63.6827C299.199 52.488 296.026 45.8769 288.004 45.8769C285.536 45.8769 283.861 46.4939 282.715 47.2873V74.8775L293.998 78.5797C297.172 76.5523 299.199 71.5279 299.199 63.6827Z" fill="black"/>
<path d="M358.434 80.6953V81.136H340.628V80.6953L343.185 76.7286V52.9287C343.185 47.5517 339.835 45.7006 335.692 45.7006C333.136 45.7006 331.196 46.4058 329.962 47.1991V76.7286L332.519 80.6953V81.136H314.801V80.6953L317.445 76.7286V26.9251L314.272 21.1955V20.7548L329.962 18.1104V45.965C332.871 41.9984 337.719 38.0317 344.154 38.0317C351.47 38.0317 355.79 42.968 355.79 50.2843V76.7286L358.434 80.6953Z" fill="black"/>
<path d="M400.569 70.2057C398.365 76.0234 392.636 82.0175 382.322 82.0175C369.982 82.0175 361.96 73.2908 361.96 60.9502C361.96 47.9043 370.687 38.0317 382.587 38.0317C392.548 38.0317 399.335 44.3784 400.216 53.8983H372.891C372.979 64.9168 377.739 72.9383 389.11 72.9383C393.958 72.9383 397.66 71.4397 399.864 69.5886L400.569 70.2057ZM372.891 52.1354H387.171C386.73 43.6732 384.702 39.971 380.295 39.971C375.888 39.971 373.155 43.4969 372.891 52.1354Z" fill="black"/>
<path d="M432.831 38.5615V51.4311H421.725C420.49 51.4311 419.433 51.6074 418.639 51.96V76.7295L421.46 80.6962V81.1369H403.39V80.6962L406.034 76.7295V44.9082L403.566 39.3549V38.9141H418.639V50.6378C421.196 44.82 425.515 38.5615 431.862 38.5615H432.831Z" fill="black"/>
<path d="M477.61 80.6953V81.136H464.652L463.066 73.2909C460.598 78.4034 456.278 82.0175 450.108 82.0175C441.029 82.0175 434.594 74.2605 434.594 63.4183C434.594 49.1384 445.348 39.2658 458.13 38.5606L462.801 38.2962V26.9251L459.716 21.1955V20.7548L475.407 18.1104V72.4975L477.61 80.6953ZM462.801 72.4094V45.0836L451.078 41.9102C448.081 44.2902 446.494 49.4028 446.494 56.1902C446.494 67.9138 450.108 74.0842 457.336 74.0842C459.54 74.0842 461.479 73.4671 462.801 72.4094Z" fill="black"/>
<path d="M66.4069 0L33.2035 33.2034H66.4069V66.4067L99.6102 33.2034V0H66.4069Z" fill="url(#paint0_linear_15_148)"/>
<path d="M33.2033 99.6098L66.4067 66.4065H33.2033V33.2031L-3.05176e-05 66.4065V99.6098H33.2033Z" fill="black"/>
<defs>
<linearGradient id="paint0_linear_15_148" x1="106.168" y1="4.15043" x2="55.3389" y2="54.9793" gradientUnits="userSpaceOnUse">
<stop stop-color="#FDC331"/>
<stop offset="0.4184" stop-color="#FA9742"/>
<stop offset="1" stop-color="#DA43E7"/>
</linearGradient>
</defs>
</svg>
